<svg width="24px" height="24px" version="1.1" viewBox="0 0 640 640" xmlns="http://www.w3.org/2000/svg">
 <text transform="scale(.9495 1.0532)" x="243.99834" y="225.72484" fill="#565656" font-family="sans-serif" font-size="312.6px" font-weight="bold" stroke-width="7.815" style="line-height:1.25" xml:space="preserve"><tspan x="243.99834" y="225.72484" fill="#565656" font-family="sans-serif" font-weight="bold" stroke-width="7.815">Z</tspan></text>
 <path d="m320 277.73c12.445 0 22.5 10.055 22.5 22.5v24.398c56.532 9.4218 101.18 54.07 110.6 110.6h24.398c12.445 0 22.5 10.055 22.5 22.5s-10.055 22.5-22.5 22.5h-24.398c-9.4219 56.531-54.071 101.18-110.6 110.6v24.398c0 12.445-10.055 22.5-22.5 22.5-12.445 0-22.5-10.055-22.5-22.5v-24.398c-56.532-9.4218-101.18-54.07-110.6-110.6h-24.398c-12.445 0-22.5-10.055-22.5-22.5s10.055-22.5 22.5-22.5h24.398c9.4219-56.531 54.071-101.18 110.6-110.6v-24.398c0-12.445 10.055-22.5 22.5-22.5zm-90.001 180a90.001 90 0 1 0 180 0 90.001 90 0 1 0-180 0zm90.001-56.25a56.251 56.25 0 1 1 0 112.5 56.251 56.25 0 1 1 0-112.5z" fill="#565656" stroke-width=".70312"/>
</svg>
