<?xml version="1.0" encoding="UTF-8" standalone="no"?>
<!-- Generator: Adobe Illustrator 19.0.0, SVG Export Plug-In . SVG Version: 6.00 Build 0)  -->

<svg
   xmlns:dc="http://purl.org/dc/elements/1.1/"
   xmlns:cc="http://creativecommons.org/ns#"
   xmlns:rdf="http://www.w3.org/1999/02/22-rdf-syntax-ns#"
   xmlns:svg="http://www.w3.org/2000/svg"
   xmlns="http://www.w3.org/2000/svg"
   xmlns:sodipodi="http://sodipodi.sourceforge.net/DTD/sodipodi-0.dtd"
   xmlns:inkscape="http://www.inkscape.org/namespaces/inkscape"
   version="1.1"
   id="Capa_1"
   x="0px"
   y="0px"
   viewBox="0 0 24 24"
   xml:space="preserve"
   inkscape:version="0.91 r13725"
   sodipodi:docname="plugin24.svg"
   width="24"
   height="24"><metadata
     id="metadata43"><rdf:RDF><cc:Work
         rdf:about=""><dc:format>image/svg+xml</dc:format><dc:type
           rdf:resource="http://purl.org/dc/dcmitype/StillImage" /><dc:title></dc:title></cc:Work></rdf:RDF></metadata><defs
     id="defs41" /><sodipodi:namedview
     pagecolor="#ffffff"
     bordercolor="#666666"
     borderopacity="1"
     objecttolerance="10"
     gridtolerance="10"
     guidetolerance="10"
     inkscape:pageopacity="0"
     inkscape:pageshadow="2"
     inkscape:window-width="962"
     inkscape:window-height="685"
     id="namedview39"
     showgrid="false"
     inkscape:zoom="12.693666"
     inkscape:cx="3.7689496"
     inkscape:cy="5.6197386"
     inkscape:window-x="0"
     inkscape:window-y="0"
     inkscape:window-maximized="0"
     inkscape:current-layer="Capa_1" /><g
     id="g3"
     transform="scale(0.046875,0.046875)"
     style="fill:#0ac9f1;fill-opacity:1"><g
       id="g5"
       style="fill:#0ac9f1;fill-opacity:1"><path
         d="M 448.801,271 497,271 c 8.284,0 15,-6.716 15,-15 l 0,-144.6 c 0,-8.284 -6.716,-15 -15,-15 l -129.6,0 0,-33.2 C 367.4,28.351 339.048,0 304.2,0 269.352,0 241,28.352 241,63.2 l 0,33.2 -129.6,0 c -8.284,0 -15,6.716 -15,15 l 0,129.6 -33.2,0 C 28.352,241 0,269.352 0,304.2 c 0,34.848 28.352,63.2 63.2,63.2 l 33.2,0 0,129.6 c 0,8.284 6.716,15 15,15 l 144.6,0 c 8.284,0 15,-6.716 15,-15 l 0,-48.2 c 0,-18.307 14.894,-33.2 33.2,-33.2 18.306,0 33.2,14.894 33.2,33.2 l 0,48.2 c 0,8.284 6.716,15 15,15 l 144.6,0 c 8.284,0 15,-6.716 15,-15 l 0,-144.6 c 0,-8.284 -6.716,-15 -15,-15 l -48.199,0 c -18.308,0 -33.201,-14.894 -33.201,-33.2 0,-18.306 14.893,-33.2 33.201,-33.2 z m 0,96.4 33.199,0 0,114.6 -114.6,0 0,-33.2 c 0,-34.849 -28.352,-63.2 -63.2,-63.2 -34.848,0 -63.2,28.351 -63.2,63.2 l 0,33.2 -114.6,0 0,-129.6 c 0,-8.284 -6.716,-15 -15,-15 l -48.2,0 C 44.893,337.4 30,322.506 30,304.2 30,285.894 44.894,271 63.2,271 l 48.2,0 c 8.284,0 15,-6.716 15,-15 l 0,-129.6 129.6,0 c 8.284,0 15,-6.716 15,-15 l 0,-48.2 C 271,44.893 285.894,30 304.2,30 c 18.306,0 33.2,14.894 33.2,33.2 l 0,48.2 c 0,8.284 6.716,15 15,15 l 129.6,0 0,114.6 -33.199,0 c -34.85,0 -63.201,28.352 -63.201,63.2 0,34.848 28.351,63.2 63.201,63.2 z"
         id="path7"
         inkscape:connector-curvature="0"
         style="fill:#0ac9f1;fill-opacity:1" /></g></g><g
     id="g9"
     transform="scale(0.046875,0.046875)"
     style="fill:#0ac9f1;fill-opacity:1" /><g
     id="g11"
     transform="scale(0.046875,0.046875)"
     style="fill:#0ac9f1;fill-opacity:1" /><g
     id="g13"
     transform="scale(0.046875,0.046875)"
     style="fill:#0ac9f1;fill-opacity:1" /><g
     id="g15"
     transform="scale(0.046875,0.046875)"
     style="fill:#0ac9f1;fill-opacity:1" /><g
     id="g17"
     transform="scale(0.046875,0.046875)"
     style="fill:#0ac9f1;fill-opacity:1" /><g
     id="g19"
     transform="scale(0.046875,0.046875)"
     style="fill:#0ac9f1;fill-opacity:1" /><g
     id="g21"
     transform="scale(0.046875,0.046875)"
     style="fill:#0ac9f1;fill-opacity:1" /><g
     id="g23"
     transform="scale(0.046875,0.046875)"
     style="fill:#0ac9f1;fill-opacity:1" /><g
     id="g25"
     transform="scale(0.046875,0.046875)"
     style="fill:#0ac9f1;fill-opacity:1" /><g
     id="g27"
     transform="scale(0.046875,0.046875)"
     style="fill:#0ac9f1;fill-opacity:1" /><g
     id="g29"
     transform="scale(0.046875,0.046875)"
     style="fill:#0ac9f1;fill-opacity:1" /><g
     id="g31"
     transform="scale(0.046875,0.046875)"
     style="fill:#0ac9f1;fill-opacity:1" /><g
     id="g33"
     transform="scale(0.046875,0.046875)"
     style="fill:#0ac9f1;fill-opacity:1" /><g
     id="g35"
     transform="scale(0.046875,0.046875)"
     style="fill:#0ac9f1;fill-opacity:1" /><g
     id="g37"
     transform="scale(0.046875,0.046875)"
     style="fill:#0ac9f1;fill-opacity:1" /></svg>
